#!OML:ASF Y:\EmotionMaleHayes\Project 1\Capture day 1\Session 1\Male1.ASF
:FULLY-SPECIFIED
:DEGREES
1223
root -1.02067 15.9075 18.245 692.014 260.484 34.6826
lowerback 11.4876 6.47782 0.866561
upperback 6.63435 8.29747 -0.18307
thorax 0.702083 4.03442 -1.53614
lowerneck -20.9225 -3.52534 -0.195169
upperneck 26.86 -9.49598 12.2503
head 13.2662 -2.759 3.08003
rclavicle 4.52235e-015 -1.09332e-014
rhumerus -3.39319 28.9263 -78.1937
rradius 81.634
rwrist -25.934
rhand -25.9896 -33.3109
rfingers 7.12502
rthumb 0.555813 -63.2899
lclavicle 4.52235e-015 -1.09332e-014
lhumerus -69.8555 -6.80872 97.4218
lradius 38.9928
lwrist 13.2857
lhand -26.6894 -20.0686
lfingers 7.12502
lthumb -0.12007 9.91114
rfemur 17.2347 5.29026 38.2275
rtibia 16.3647
rfoot -25.0209 5.14026
rtoes 23.9739
lfemur -43.9076 3.19642 -2.30446
ltibia 34.393
lfoot -8.19157 3.45862
ltoes -24.9719
1224
root -1.31488 15.867 18.2799 692.247 259.965 34.206
lowerback 11.2569 6.47977 0.855877
upperback 6.61787 8.30342 -0.152532
thorax 0.802338 4.0386 -1.47392
lowerneck -21.4411 -3.48684 -0.115009
upperneck 27.2412 -9.52263 12.1333
head 13.5266 -2.74039 3.023
rclavicle 6.64935e-014 -9.93923e-015
rhumerus -3.89872 29.2074 -78.0684
rradius 83.3852
rwrist -26.5503
rhand -25.3661 -32.9299
rfingers 7.12502
rthumb 1.15797 -62.9065
lclavicle 6.64935e-014 -9.93923e-015
lhumerus -70.3155 -6.45957 97.1482
lradius 38.9796
lwrist 13.7024
lhand -27.2221 -20.159
lfingers 7.12502
lthumb -0.634594 9.81978
rfemur 17.8763 5.90705 38.6099
rtibia 18.0242
rfoot -24.7222 4.37273
rtoes 19.7525
lfemur -42.853 2.54972 -2.02042
ltibia 34.4482
lfoot -7.36255 4.37695
ltoes -25.9398
1225
root -1.6096 15.8302 18.3171 690.81 259.371 35.4794
lowerback 10.9389 6.38058 1.19117
upperback 6.5736 8.2115 -0.00867818
thorax 0.949931 4.00345 -1.46424
lowerneck -21.1118 -3.35877 -0.225207
upperneck 26.9892 -9.27858 12.2406
head 13.342 -2.65897 3.12334
rclavicle 3.8763e-014 2.38542e-015
rhumerus -4.56764 29.7139 -78.0228
rradius 84.9109
rwrist -26.5411
rhand -25.1855 -32.3049
rfingers 7.12502
rthumb 1.33246 -62.2805
lclavicle 3.8763e-014 2.38542e-015
lhumerus -70.5599 -6.04002 96.846
lradius 38.8808
lwrist 14.0475
lhand -27.5558 -20.1766
lfingers 7.12502
lthumb -0.956932 9.80098
rfemur 17.5183 6.42696 39.3067
rtibia 21.2154
rfoot -23.7212 3.6301
rtoes 17.876
lfemur -41.5692 1.37313 -0.935282
ltibia 34.5963
lfoot -7.20994 4.40454
ltoes -15.1537
1226
root -1.90151 15.8031 18.3552 690.332 258.829 35.7685
lowerback 10.8393 6.27463 1.44112
upperback 6.42991 8.10475 0.0285371
thorax 0.879004 3.95887 -1.54933
lowerneck -21.5199 -3.28621 -0.146428
upperneck 27.4127 -9.28327 12.1761
head 13.6004 -2.6301 3.09427
rclavicle -3.0911e-014 4.01545e-014
rhumerus -5.49639 30.3106 -78.2764
rradius 86.1705
rwrist -26.0781
rhand -24.4964 -31.3083
rfingers 7.12502
rthumb 1.99796 -61.2787
lclavicle -3.0911e-014 4.01545e-014
lhumerus -70.6962 -5.85673 96.613
lradius 38.6009
lwrist 14.2793
lhand -27.4897 -19.7385
lfingers 7.12502
lthumb -0.893009 10.2394
rfemur 17.0572 6.47022 39.4123
rtibia 24.363
rfoot -21.8811 3.35781
rtoes 16.3482
lfemur -40.2438 0.744716 -0.488322
ltibia 35.1248
lfoot -6.11721 4.23949
ltoes -7.68264
1227
root -2.19296 15.7793 18.3954 691.546 258.547 34.2049
lowerback 10.9416 6.11529 1.29876
upperback 6.3064 7.88801 -0.0795522
thorax 0.681949 3.84807 -1.58381
lowerneck -21.1586 -3.06049 -0.0900561
upperneck 27.158 -8.93868 12.2243
head 13.3874 -2.49755 3.16
rclavicle -8.17005e-014 4.17448e-014
rhumerus -6.80519 30.9614 -78.9205
rradius 87.265
rwrist -25.289
rhand -24.2211 -30.4891
rfingers 7.12502
rthumb 2.2638 -60.4569
lclavicle -8.17005e-014 4.17448e-014
lhumerus -70.6185 -5.82418 96.5206
lradius 38.0669
lwrist 14.3719
lhand -27.838 -19.7542
lfingers 7.12502
lthumb -1.22945 10.222
rfemur 16.6125 6.22497 38.8239
rtibia 27.5733
rfoot -20.1811 4.15386
rtoes 13.8004
lfemur -39.1506 0.582433 -0.955027
ltibia 36.2169
lfoot -7.63804 3.35456
ltoes -10.1816
